<?xml version="1.0" encoding="UTF-8"?>
<svg xmlns="http://www.w3.org/2000/svg" viewBox="0 0 89.24 113.22">
  <defs>
    <style>
      .cls-1 {
        fill: none;
        stroke-linecap: round;
      }

      .cls-1, .cls-2, .cls-3 {
        stroke: #000;
        stroke-miterlimit: 10;
        stroke-width: 2px;
      }

      .cls-2 {
        fill: #ff8b00;
      }

      .cls-4 {
        isolation: isolate;
      }

      .cls-3, .cls-5 {
        fill: #93db21;
      }

      .cls-5, .cls-6 {
        mix-blend-mode: multiply;
      }

      .cls-6 {
        fill: #ac4dff;
        opacity: .3;
      }
    </style>
  </defs>
  <g class="cls-4">
    <g id="Layer_1" data-name="Layer 1">
      <g>
        <rect class="cls-3" x="11.44" y="22.25" width="72.69" height="84.75" rx="11.01" ry="11.01"/>
        <g>
          <rect class="cls-2" x="28.9" y="6.22" width="3.44" height="30.97" rx="1.72" ry="1.72"/>
          <rect class="cls-2" x="40.34" y="6.22" width="3.44" height="30.97" rx="1.72" ry="1.72"/>
          <rect class="cls-2" x="51.79" y="6.22" width="3.44" height="30.97" rx="1.72" ry="1.72"/>
          <rect class="cls-2" x="63.23" y="6.22" width="3.44" height="30.97" rx="1.72" ry="1.72"/>
        </g>
        <line class="cls-1" x1="5.11" y1="58.4" x2="5.11" y2="82.47"/>
        <path class="cls-5" d="M74.61,22.36v46.11c0,13.15-8.94,24.61-21.69,27.81l-36.22,9.09c1.67,1.03,3.64,1.63,5.75,1.63h50.67c6.08,0,11.01-4.93,11.01-11.01v-62.74c0-5.57-4.14-10.16-9.51-10.89Z"/>
        <path class="cls-2" d="M19.07,53.81h47.6v44.73H24.38c-2.93,0-5.31-2.38-5.31-5.31v-39.42h0Z"/>
        <path class="cls-6" d="M59.97,53.81v11.65c0,13.51-10.95,24.47-24.47,24.47h-16.43v3.3c0,2.93,2.38,5.31,5.31,5.31h42.29v-44.73h-6.71Z"/>
        <line class="cls-1" x1="34.56" y1="98.54" x2="34.56" y2="87.73"/>
        <line class="cls-1" x1="40.06" y1="98.54" x2="40.06" y2="78.43"/>
        <line class="cls-1" x1="45.14" y1="98.17" x2="45.14" y2="83.64"/>
      </g>
    </g>
  </g>
</svg>